<svg xmlns="http://www.w3.org/2000/svg" xmlns:xlink="http://www.w3.org/1999/xlink" id="Livello_1" x="0px" y="0px" viewBox="0 0 537.5 117.8" style="enable-background:new 0 0 537.5 117.8;" xml:space="preserve"><style type="text/css">	.st0{display:none;}	.st1{display:inline;fill:#F5F5F5;}	.st2{font-family:'Comfortaa-SemiBold';}	.st3{font-size:21.77px;}	.st4{fill:url(#SVGID_1_);}	.st5{fill:url(#SVGID_00000182498489267311756580000017669580780529279651_);}	.st6{fill:url(#SVGID_00000065764761077866887620000017941228796662044298_);}	.st7{fill:url(#SVGID_00000112603936161446370460000009694429055902504885_);}	.st8{fill:url(#SVGID_00000129917322266975474560000005884328113887526067_);}	.st9{fill:url(#SVGID_00000085236359174547509490000009662449553799376292_);}	.st10{fill:url(#SVGID_00000092415733584556261040000007946853375511674258_);}	.st11{fill:url(#SVGID_00000075133638903982298730000010055480554055255223_);}	.st12{fill:url(#SVGID_00000164513524737695982540000005774326033720482728_);}	.st13{fill:#C7283D;}	.st14{fill:url(#SVGID_00000103985724304497588470000003987321818152773794_);}	.st15{fill:#661515;}	.st16{enable-background:new    ;}	.st17{fill:#C8293D;}</style><g id="scritte_editabili" class="st0">	<text transform="matrix(1 0 0 1 18.9 111.51)" class="st1 st2 st3">unco</text>	<text transform="matrix(1 0 0 1 76.26 111.51)" class="st1 st2 st3">n</text>	<text transform="matrix(1 0 0 1 90.41 111.51)" class="st1 st2 st3">v</text>	<text transform="matrix(1 0 0 1 101.94 111.51)" class="st1 st2 st3">entional business</text>	<text transform="matrix(1 0 0 1 376.62 111.51)" class="st1 st2 st3">e</text>	<text transform="matrix(1 0 0 1 390.64 111.51)" class="st1 st2 st3">v</text>	<text transform="matrix(1 0 0 1 402.17 111.51)" class="st1 st2 st3">olution</text>	<text transform="matrix(-1 0 0 1 376.4395 111.51)" class="st1 st2 st3">R</text></g><g id="Livello_2_00000136405140325091214440000005809185860935106226_">			<linearGradient id="SVGID_1_" gradientUnits="userSpaceOnUse" x1="93.5432" y1="223.6385" x2="525.6855" y2="223.6385" gradientTransform="matrix(1 0 0 1 0 -180)">		<stop offset="0.14" style="stop-color:#C7283D"></stop>		<stop offset="0.29" style="stop-color:#BE2639"></stop>		<stop offset="0.53" style="stop-color:#A6212F"></stop>		<stop offset="0.83" style="stop-color:#7F1A1F"></stop>		<stop offset="1" style="stop-color:#661515"></stop>	</linearGradient>	<path class="st4" d="M217.4,36.4v39.2c0,3-1,5.6-3,7.6c-1.9,1.9-4.6,3-7.6,3c-3,0-5.6-1-7.6-2.9s-3.1-4.6-3.1-7.6V36.4  c0-5-1.2-8.8-3.5-11.3c-2.3-2.5-5.1-3.6-8.8-3.6c-4.1,0-7.2,1.3-9.7,3.9s-3.7,6.1-3.7,10.5v39.7c0,3-1.1,5.7-3.1,7.6  c-2,1.9-4.6,2.9-7.6,2.9c-3,0-5.4-1-7.4-2.8c-2.1-1.9-3.3-4.6-3.3-7.7V36.4c0-5-1.2-8.8-3.5-11.3c-2.3-2.5-5.1-3.6-8.8-3.6  c-4.1,0-7.3,1.3-9.8,3.9c-2.6,2.7-3.8,6.1-3.8,10.5v39.8c0,3-1,5.6-3,7.6c-1.9,1.9-4.6,3-7.6,3s-5.6-1-7.6-2.9s-3.1-4.6-3.1-7.6  V12.4c0-3,1.1-5.6,3-7.6c1.9-2,4.6-3,7.6-3s5.7,1.1,7.6,3.1c0.3,0.3,0.6,0.7,0.8,1c0.2-0.1,0.4-0.3,0.7-0.4  c4.9-3,10.6-4.5,16.7-4.5c6.1,0,11.7,1.5,16.6,4.4c2.3,1.4,4.4,3,6.2,5c1.9-1.9,4.1-3.5,6.6-4.9c5.2-3,11.2-4.4,17.8-4.4  c6.1,0,11.7,1.5,16.6,4.4c4.9,2.9,8.7,7.2,11.4,12.6C216.2,23.2,217.5,29.4,217.4,36.4L217.4,36.4z"></path>			<linearGradient id="SVGID_00000118392830110447096480000004089400948282325666_" gradientUnits="userSpaceOnUse" x1="93.5432" y1="239.899" x2="525.6855" y2="239.899" gradientTransform="matrix(1 0 0 1 0 -180)">		<stop offset="0.14" style="stop-color:#C7283D"></stop>		<stop offset="0.29" style="stop-color:#BE2639"></stop>		<stop offset="0.53" style="stop-color:#A6212F"></stop>		<stop offset="0.83" style="stop-color:#7F1A1F"></stop>		<stop offset="1" style="stop-color:#661515"></stop>	</linearGradient>	<path style="fill:url(#SVGID_00000118392830110447096480000004089400948282325666_);" d="M358.7,12.4v68.7c0,7.1-1.6,13.5-4.8,19.1  c-3.2,5.6-7.6,10-13.2,13.2c-5.5,3.1-11.9,4.7-18.9,4.7c-3,0-5.6-1.1-7.6-3.1c-2-2-3-4.6-3-7.6s1-5.7,3-7.6c2-2,4.6-3,7.6-3  c3.2,0,5.9-0.6,8.1-2c2.3-1.3,4.1-3.1,5.4-5.4c1.4-2.3,2-5,2-8.2V12.4c0-3.9,1.7-6.4,3.1-7.8c2-1.9,4.6-2.9,7.6-2.9s5.6,1,7.6,2.9  C357,6,358.7,8.5,358.7,12.4L358.7,12.4z"></path>			<linearGradient id="SVGID_00000031891864558526532590000016218677126117546907_" gradientUnits="userSpaceOnUse" x1="93.5432" y1="223.7881" x2="525.6855" y2="223.7881" gradientTransform="matrix(1 0 0 1 0 -180)">		<stop offset="0.14" style="stop-color:#C7283D"></stop>		<stop offset="0.29" style="stop-color:#BE2639"></stop>		<stop offset="0.53" style="stop-color:#A6212F"></stop>		<stop offset="0.83" style="stop-color:#7F1A1F"></stop>		<stop offset="1" style="stop-color:#661515"></stop>	</linearGradient>	<path style="fill:url(#SVGID_00000031891864558526532590000016218677126117546907_);" d="M439.9,40.4c0.1,1.2,0.2,2.4,0.2,3.6  c0,1.1,0,2.1-0.2,3.1c0.1-1,0.2-2,0.2-3.1v-0.1C440.2,42.7,440.1,41.5,439.9,40.4z"></path>			<linearGradient id="SVGID_00000034090529254117287230000000609300689266850453_" gradientUnits="userSpaceOnUse" x1="93.5432" y1="223.9876" x2="525.6855" y2="223.9876" gradientTransform="matrix(1 0 0 1 0 -180)">		<stop offset="0.14" style="stop-color:#C7283D"></stop>		<stop offset="0.29" style="stop-color:#BE2639"></stop>		<stop offset="0.53" style="stop-color:#A6212F"></stop>		<stop offset="0.83" style="stop-color:#7F1A1F"></stop>		<stop offset="1" style="stop-color:#661515"></stop>	</linearGradient>	<path style="fill:url(#SVGID_00000034090529254117287230000000609300689266850453_);" d="M455.6,22c-3.7-6.5-8.8-11.6-15.2-15.3  C434,3,426.8,1.1,418.6,1.1c-8.2,0-15.6,1.9-21.9,5.6s-11.6,8.9-15.3,15.3c-3.7,6.5-5.6,13.9-5.6,22s1.9,15.5,5.6,21.9  c3.7,6.5,8.8,11.6,15.3,15.3c6.4,3.7,13.8,5.6,21.9,5.6c8.2,0,15.5-1.9,21.8-5.6S452,72.4,455.7,66c3.7-6.5,5.6-13.8,5.6-21.9  C461.2,35.8,459.2,28.4,455.6,22z M440.2,44c0,1-0.1,2.1-0.2,3.1c0,0.1,0,0.1,0,0.2c-1.6,10.4-10.6,18.4-21.4,18.4  c-11.6,0-21-9.1-21.6-20.6c0-0.4,0-0.7,0-1.1v-0.1c0-0.4,0-0.7,0-1.1c0.6-11.5,10.1-20.6,21.6-20.6c10.8,0,19.8,7.9,21.4,18.2  C440.2,41.5,440.3,42.7,440.2,44C440.2,43.8,440.2,44,440.2,44z"></path>			<linearGradient id="SVGID_00000061442358069643061930000012885053196637091262_" gradientUnits="userSpaceOnUse" x1="93.5432" y1="223.5886" x2="525.6855" y2="223.5886" gradientTransform="matrix(1 0 0 1 0 -180)">		<stop offset="0.14" style="stop-color:#C7283D"></stop>		<stop offset="0.29" style="stop-color:#BE2639"></stop>		<stop offset="0.53" style="stop-color:#A6212F"></stop>		<stop offset="0.83" style="stop-color:#7F1A1F"></stop>		<stop offset="1" style="stop-color:#661515"></stop>	</linearGradient>	<path style="fill:url(#SVGID_00000061442358069643061930000012885053196637091262_);" d="M535.9,14.5c-0.7,3.4-2.6,5.1-4,5.9  c-1.6,0.9-3.4,1.4-5.4,1.4c-1.3,0-2.7,0-4.2-0.1h-0.4c-4.6-0.6-8.7-0.4-12.1,0.7c-3.3,1-5.9,2.7-7.7,5c-1.8,2.1-2.6,4.7-2.6,7.8  v40.6c0,3.9-1.6,6.3-2.9,7.6c-1.3,1.3-3.7,2.9-7.6,2.9s-6.3-1.6-7.6-2.9c-1.3-1.3-2.9-3.7-2.9-7.6V12.3c0-3.9,1.6-6.3,2.9-7.6  s3.7-2.9,7.6-2.9s6.3,1.6,7.6,2.9c0.6,0.6,1.2,1.4,1.7,2.4c0.8-0.6,1.7-1.1,2.6-1.7c5.1-3,10.8-4.5,17.1-4.5c5.5,0,9.8,0.9,13,2.7  C535.1,6,537,10.1,535.9,14.5L535.9,14.5z"></path>			<linearGradient id="SVGID_00000139261259946759251050000017862119522747742646_" gradientUnits="userSpaceOnUse" x1="93.5432" y1="223.8879" x2="525.6855" y2="223.8879" gradientTransform="matrix(1 0 0 1 0 -180)">		<stop offset="0.14" style="stop-color:#C7283D"></stop>		<stop offset="0.29" style="stop-color:#BE2639"></stop>		<stop offset="0.53" style="stop-color:#A6212F"></stop>		<stop offset="0.83" style="stop-color:#7F1A1F"></stop>		<stop offset="1" style="stop-color:#661515"></stop>	</linearGradient>	<path style="fill:url(#SVGID_00000139261259946759251050000017862119522747742646_);" d="M318.5,32.4c-1-3.7-2.4-7.1-4.2-10.3  c-3.7-6.4-8.9-11.6-15.3-15.4S285.4,1,277.5,1s-15.4,1.9-21.8,5.6c-6.5,3.8-11.6,8.9-15.4,15.4s-5.6,13.9-5.6,21.9  s1.8,15.3,5.4,21.7c3.6,6.5,8.5,11.6,14.7,15.4c6.2,3.8,13.3,5.7,21,5.7s14.4-1.8,20.3-5.4c1.1-0.7,2.2-1.4,3.2-2.2  c0.5,1.5,1.4,2.9,2.5,4c2,1.9,4.6,2.9,7.6,2.9s5.4-1,7.4-2.8c2.1-1.9,3.3-4.6,3.3-7.7V43.9C320,39.9,319.5,36.1,318.5,32.4  L318.5,32.4z M299.1,44c0,12-9.8,21.6-21.7,21.6c-0.7,0-1.5,0-2.1-0.1c-0.4,0-0.7-0.1-1-0.1c-0.4-0.1-0.7-0.1-1-0.2  c-0.4-0.1-0.7-0.1-1-0.2c-0.4-0.1-0.8-0.2-1.2-0.3c-0.6-0.2-1.2-0.4-1.7-0.6c-0.3-0.1-0.6-0.3-0.9-0.4c-0.6-0.3-1.2-0.6-1.8-0.9  c-0.3-0.2-0.6-0.3-0.9-0.5s-0.5-0.3-0.8-0.5c0,0-0.1,0-0.1-0.1c-0.3-0.2-0.5-0.4-0.8-0.6c-0.3-0.2-0.5-0.4-0.8-0.6l0,0  c-0.2-0.2-0.5-0.4-0.7-0.7c-0.2-0.2-0.5-0.5-0.7-0.7s-0.5-0.5-0.7-0.7c-0.2-0.2-0.5-0.5-0.6-0.8c-0.2-0.2-0.4-0.5-0.6-0.8  c-0.3-0.4-0.5-0.7-0.7-1.1c-0.1-0.2-0.2-0.4-0.4-0.6l-0.1-0.2c-0.1-0.2-0.3-0.5-0.4-0.8s-0.3-0.6-0.5-0.9c0,0,0,0,0-0.1  c-0.1-0.3-0.3-0.6-0.4-0.9c-0.4-0.9-0.7-1.8-0.9-2.8c-0.1-0.3-0.1-0.6-0.2-0.9c-0.1-0.4-0.2-0.9-0.2-1.3c-0.1-0.7-0.2-1.4-0.2-2.1  c0-0.4,0-0.7,0-1.1V44c0-0.4,0-0.7,0-1.1c0.6-11.5,10.1-20.6,21.6-20.6c0.7,0,1.5,0,2.1,0.1c0.4,0,0.7,0.1,1,0.1  c0.4,0,0.7,0.1,1,0.2c0.4,0.1,0.7,0.1,1,0.2c0.5,0.1,1,0.2,1.4,0.4c0.3,0.1,0.5,0.2,0.8,0.3c0.3,0.1,0.6,0.2,0.9,0.4  c0,0,0.1,0,0.1,0.1c0.3,0.1,0.6,0.2,0.9,0.4c0.2,0.1,0.5,0.2,0.7,0.4c0.2,0.1,0.3,0.2,0.5,0.3c0.2,0.1,0.4,0.2,0.5,0.3  c0.6,0.3,1.1,0.7,1.6,1.1c0.2,0.1,0.4,0.3,0.6,0.4l0.1,0.1c0.2,0.2,0.4,0.3,0.6,0.5c0,0,0.1,0.1,0.2,0.1c0.2,0.2,0.4,0.4,0.6,0.6  l0,0c0.2,0.2,0.5,0.5,0.7,0.7c0.2,0.2,0.5,0.5,0.7,0.7c0.5,0.5,0.9,1,1.3,1.6c0.2,0.3,0.4,0.5,0.6,0.8c0.2,0.3,0.4,0.7,0.6,1  c0.1,0.2,0.3,0.5,0.4,0.7c0.2,0.3,0.3,0.6,0.5,0.9c0.1,0.3,0.3,0.6,0.4,0.9c0.1,0.3,0.3,0.6,0.4,1c0.1,0.3,0.2,0.7,0.3,1  c0.2,0.5,0.3,1,0.4,1.5s0.2,1,0.3,1.5l0,0c0.1,0.3,0.1,0.6,0.1,1c0,0,0,0,0,0.1l0,0c0,0.2,0,0.4,0,0.6c0-0.4,0-0.8-0.1-1.1  c0,0.5,0.1,0.9,0.1,1.4c0,0.1,0,0.1,0,0.2c0,0.1,0,0.2,0,0.4C299.1,43.3,299.1,43.6,299.1,44L299.1,44L299.1,44z"></path>			<linearGradient id="SVGID_00000005945006664566586800000016980272726811084191_" gradientUnits="userSpaceOnUse" x1="93.5432" y1="210.4704" x2="525.6855" y2="210.4704" gradientTransform="matrix(1 0 0 1 0 -180)">		<stop offset="0.14" style="stop-color:#C7283D"></stop>		<stop offset="0.29" style="stop-color:#BE2639"></stop>		<stop offset="0.53" style="stop-color:#A6212F"></stop>		<stop offset="0.83" style="stop-color:#7F1A1F"></stop>		<stop offset="1" style="stop-color:#661515"></stop>	</linearGradient>	<path style="fill:url(#SVGID_00000005945006664566586800000016980272726811084191_);" d="M294.9,31.3c-0.4-0.5-0.8-1.1-1.3-1.6  C294.1,30.2,294.5,30.7,294.9,31.3z"></path>			<linearGradient id="SVGID_00000026853524249832596850000000430689782766675634_" gradientUnits="userSpaceOnUse" x1="298.9751" y1="222.5411" x2="298.9751" y2="222.5411" gradientTransform="matrix(1 0 0 1 0 -180)">		<stop offset="0.14" style="stop-color:#C7283D"></stop>		<stop offset="0.29" style="stop-color:#BE2639"></stop>		<stop offset="0.53" style="stop-color:#A6212F"></stop>		<stop offset="0.83" style="stop-color:#7F1A1F"></stop>		<stop offset="1" style="stop-color:#661515"></stop>	</linearGradient>	<path style="fill:url(#SVGID_00000026853524249832596850000000430689782766675634_);" d="M299,42.7c0-0.2,0-0.3,0-0.4  c0,0.1,0,0.1,0,0.2C299,42.5,299,42.6,299,42.7L299,42.7z"></path>			<linearGradient id="SVGID_00000022541095787645715850000007579484877886112391_" gradientUnits="userSpaceOnUse" x1="93.5432" y1="226.1823" x2="525.6855" y2="226.1823" gradientTransform="matrix(1 0 0 1 0 -180)">		<stop offset="0.14" style="stop-color:#C7283D"></stop>		<stop offset="0.29" style="stop-color:#BE2639"></stop>		<stop offset="0.53" style="stop-color:#A6212F"></stop>		<stop offset="0.83" style="stop-color:#7F1A1F"></stop>		<stop offset="1" style="stop-color:#661515"></stop>	</linearGradient>	<path style="fill:url(#SVGID_00000022541095787645715850000007579484877886112391_);" d="M255.9,47.2c-0.1-0.7-0.2-1.4-0.2-2.1  C255.7,45.8,255.8,46.5,255.9,47.2z"></path>	<path class="st13" d="M84.9,43.5c0,0.8,0,1.5-0.1,2.3v29.6c0,5.6-4.6,10.2-10.2,10.2h-1.1c-4.1,0-7.6-2.4-9.2-5.8  c-0.3-0.6-0.5-1.2-0.7-1.8c-0.2-0.8-0.3-1.7-0.3-2.6l0.2-31.7l0,0c0,0,0-1.2,0-0.3c0-0.1,0-0.1,0-0.2C63.4,31.5,54,22,42.2,21.9  c0,0-0.1,0-0.2,0c-0.5,0-1,0-1.5,0c-16.9,0.9-30.2,14.9-30.2,32c0,15.8,11.4,28.8,26.3,31.5C16,82.7,0,65,0,43.5  C0,20.1,19,1.1,42.4,1.1S84.9,20.1,84.9,43.5z"></path>			<linearGradient id="SVGID_00000081626161420979459360000012674210007046882453_" gradientUnits="userSpaceOnUse" x1="58.451" y1="233.7401" x2="10.4169" y2="234.3782" gradientTransform="matrix(1 0 0 1 0 -180)">		<stop offset="0.14" style="stop-color:#C7283D"></stop>		<stop offset="0.29" style="stop-color:#BE2639"></stop>		<stop offset="0.53" style="stop-color:#A6212F"></stop>		<stop offset="0.83" style="stop-color:#7F1A1F"></stop>		<stop offset="1" style="stop-color:#661515"></stop>	</linearGradient>	<path style="fill:url(#SVGID_00000081626161420979459360000012674210007046882453_);" d="M58.5,82.7c-3.2,1.3-6.7,2.3-10.3,2.8  c-1.9,0.3-3.8,0.4-5.8,0.4c-2,0-3.9-0.1-5.8-0.4c-15-2.7-26.3-15.8-26.3-31.5c0-17.2,13.4-31.1,30.2-32c-11.2,0.8-20,10.1-20,21.4  S30.1,64.9,42,64.9c6.6,0,12.5-3,16.4-7.6L58.5,82.7L58.5,82.7z"></path>	<path class="st15" d="M64.3,79.9c-1.9,1.1-3.8,2.1-5.9,2.9V57.3c2.5-3,4.3-6.7,4.9-10.7c0.2-1,0.2-1.9,0.2-2.9l0,0l-0.2,31.8  c0,0.9,0.1,1.8,0.3,2.6C63.8,78.7,64,79.3,64.3,79.9L64.3,79.9z"></path>	<g class="st16">		<path class="st15" d="M25.9,111.9c-1,0-1.9-0.2-2.7-0.6s-1.4-1.1-1.9-1.9s-0.7-1.8-0.7-3v-5.5c0-0.3,0.1-0.5,0.3-0.7   c0.2-0.2,0.4-0.3,0.7-0.3s0.5,0.1,0.7,0.3c0.2,0.2,0.3,0.4,0.3,0.7v5.5c0,0.8,0.2,1.5,0.5,2.1c0.3,0.6,0.8,1,1.3,1.2   c0.5,0.3,1.2,0.4,1.8,0.4c0.7,0,1.3-0.1,1.8-0.4s0.9-0.6,1.2-1.1c0.3-0.4,0.5-0.9,0.5-1.5H31c0,0.9-0.3,1.7-0.7,2.4   c-0.4,0.7-1,1.3-1.8,1.7C27.7,111.7,26.8,111.9,25.9,111.9z M30.7,111.8c-0.3,0-0.5-0.1-0.7-0.3c-0.2-0.2-0.3-0.4-0.3-0.7v-9.9   c0-0.3,0.1-0.5,0.3-0.7c0.2-0.2,0.4-0.3,0.7-0.3s0.5,0.1,0.7,0.3c0.2,0.2,0.3,0.4,0.3,0.7v9.9c0,0.3-0.1,0.5-0.3,0.7   C31.2,111.7,31,111.8,30.7,111.8z"></path>		<path class="st15" d="M36.6,111.9c-0.3,0-0.5-0.1-0.7-0.3c-0.2-0.2-0.3-0.4-0.3-0.7V101c0-0.3,0.1-0.5,0.3-0.7   c0.2-0.2,0.4-0.3,0.7-0.3s0.5,0.1,0.7,0.3c0.2,0.2,0.3,0.4,0.3,0.7v9.9c0,0.3-0.1,0.5-0.3,0.7C37.2,111.8,36.9,111.9,36.6,111.9z    M45.7,111.9c-0.3,0-0.5-0.1-0.7-0.3s-0.3-0.4-0.3-0.7v-5.5c0-0.9-0.2-1.6-0.5-2.1c-0.3-0.5-0.7-1-1.3-1.2   c-0.5-0.3-1.2-0.4-1.9-0.4s-1.2,0.1-1.8,0.4c-0.5,0.3-0.9,0.6-1.3,1c-0.3,0.4-0.5,0.9-0.5,1.5h-1.3c0-0.9,0.2-1.7,0.7-2.4   c0.4-0.7,1.1-1.3,1.8-1.7c0.8-0.4,1.6-0.6,2.6-0.6s1.9,0.2,2.7,0.6c0.8,0.4,1.4,1.1,1.9,1.9c0.5,0.8,0.7,1.8,0.7,3v5.5   c0,0.3-0.1,0.5-0.3,0.7C46.2,111.8,46,111.9,45.7,111.9z"></path>		<path class="st15" d="M55.8,111.9c-1.1,0-2.2-0.3-3.1-0.8c-0.9-0.5-1.6-1.2-2.1-2.2c-0.5-1-0.8-1.9-0.8-3c0-1.2,0.3-2.2,0.8-3.1   c0.5-0.9,1.2-1.6,2.1-2.1c0.9-0.5,1.9-0.8,3-0.8c0.9,0,1.6,0.2,2.4,0.5c0.7,0.3,1.4,0.8,1.9,1.5c0.2,0.2,0.3,0.4,0.2,0.7   c-0.1,0.2-0.2,0.4-0.4,0.6c-0.2,0.1-0.4,0.2-0.6,0.1c-0.2,0-0.4-0.2-0.6-0.4c-0.8-0.8-1.7-1.2-2.9-1.2c-0.8,0-1.4,0.2-2,0.5   c-0.6,0.4-1,0.9-1.4,1.5c-0.3,0.6-0.5,1.4-0.5,2.2s0.2,1.5,0.5,2.2c0.3,0.6,0.8,1.1,1.4,1.5c0.6,0.4,1.3,0.6,2.1,0.6   c0.5,0,1-0.1,1.4-0.2s0.8-0.3,1.1-0.6c0.2-0.2,0.4-0.3,0.6-0.3c0.2,0,0.4,0.1,0.6,0.2c0.2,0.2,0.3,0.4,0.4,0.6   c0,0.2-0.1,0.4-0.2,0.6C58.7,111.4,57.3,111.9,55.8,111.9z"></path>		<path class="st15" d="M68.7,111.9c-1.2,0-2.2-0.3-3.1-0.8c-0.9-0.5-1.6-1.2-2.1-2.1c-0.5-0.9-0.8-1.9-0.8-3.1   c0-1.2,0.3-2.2,0.8-3.1c0.5-0.9,1.2-1.6,2.1-2.1c0.9-0.5,1.9-0.8,3.1-0.8c1.2,0,2.2,0.3,3.1,0.8c0.9,0.5,1.6,1.2,2.1,2.1   c0.5,0.9,0.8,2,0.8,3.1c0,1.2-0.3,2.2-0.8,3.1c-0.5,0.9-1.2,1.6-2.1,2.1C71,111.7,69.9,111.9,68.7,111.9z M68.7,110.1   c0.8,0,1.5-0.2,2.1-0.5c0.6-0.4,1.1-0.9,1.4-1.5s0.5-1.4,0.5-2.2c0-0.8-0.2-1.6-0.5-2.2s-0.8-1.1-1.4-1.5   c-0.6-0.4-1.3-0.5-2.1-0.5c-0.8,0-1.5,0.2-2.1,0.5c-0.6,0.4-1.1,0.9-1.4,1.5s-0.5,1.4-0.5,2.2c0,0.8,0.2,1.6,0.5,2.2   s0.8,1.1,1.4,1.5C67.3,110,68,110.1,68.7,110.1z"></path>	</g>	<g class="st16">		<path class="st15" d="M79.1,111.9c-0.3,0-0.5-0.1-0.7-0.3c-0.2-0.2-0.3-0.4-0.3-0.7V101c0-0.3,0.1-0.5,0.3-0.7   c0.2-0.2,0.4-0.3,0.7-0.3c0.3,0,0.5,0.1,0.7,0.3c0.2,0.2,0.3,0.4,0.3,0.7v9.9c0,0.3-0.1,0.5-0.3,0.7S79.4,111.9,79.1,111.9z    M88.2,111.9c-0.3,0-0.5-0.1-0.7-0.3c-0.2-0.2-0.3-0.4-0.3-0.7v-5.5c0-0.9-0.2-1.6-0.5-2.1c-0.3-0.5-0.7-1-1.3-1.2   c-0.5-0.3-1.2-0.4-1.9-0.4c-0.7,0-1.2,0.1-1.8,0.4c-0.5,0.3-0.9,0.6-1.3,1c-0.3,0.4-0.5,0.9-0.5,1.5h-1.3c0-0.9,0.2-1.7,0.7-2.4   c0.4-0.7,1.1-1.3,1.8-1.7c0.8-0.4,1.6-0.6,2.6-0.6s1.9,0.2,2.7,0.6c0.8,0.4,1.4,1.1,1.9,1.9c0.5,0.8,0.7,1.8,0.7,3v5.5   c0,0.3-0.1,0.5-0.3,0.7C88.7,111.8,88.5,111.9,88.2,111.9z"></path>	</g>	<g class="st16">		<path class="st15" d="M96.3,111.8c-0.4,0-0.7-0.2-1-0.7l-4.7-9.9c-0.1-0.2-0.1-0.5,0-0.7c0.1-0.2,0.3-0.4,0.5-0.5   c0.2-0.1,0.4-0.1,0.7-0.1c0.2,0.1,0.4,0.2,0.5,0.4l4.4,9.7h-1l4.4-9.6c0.1-0.2,0.3-0.4,0.5-0.5c0.2-0.1,0.5-0.1,0.7,0   c0.2,0.1,0.4,0.3,0.5,0.5c0.1,0.2,0.1,0.4,0,0.7l-4.7,9.9C97,111.6,96.7,111.8,96.3,111.8z"></path>	</g>	<g class="st16">		<path class="st15" d="M109.2,111.9c-1.2,0-2.3-0.3-3.2-0.8c-0.9-0.5-1.6-1.2-2.2-2.1c-0.5-0.9-0.8-1.9-0.8-3.1   c0-1.2,0.2-2.2,0.7-3.1c0.5-0.9,1.2-1.6,2-2.1c0.9-0.5,1.9-0.8,3-0.8c1.1,0,2.1,0.2,2.9,0.8s1.4,1.2,1.9,2.1   c0.4,0.9,0.7,1.9,0.7,3c0,0.2-0.1,0.5-0.3,0.6s-0.4,0.2-0.7,0.2h-8.9V105h9l-0.9,0.6c0-0.8-0.2-1.5-0.5-2.1   c-0.3-0.6-0.7-1.1-1.2-1.4c-0.5-0.3-1.2-0.5-1.9-0.5c-0.8,0-1.5,0.2-2.1,0.6c-0.6,0.4-1.1,0.9-1.4,1.5c-0.3,0.7-0.5,1.4-0.5,2.2   c0,0.8,0.2,1.6,0.6,2.2c0.4,0.6,0.9,1.2,1.5,1.5c0.6,0.4,1.4,0.6,2.3,0.6c0.5,0,0.9-0.1,1.4-0.3c0.5-0.2,0.9-0.4,1.2-0.6   c0.2-0.2,0.4-0.2,0.7-0.2c0.2,0,0.4,0.1,0.6,0.2c0.2,0.2,0.3,0.4,0.3,0.7c0,0.2-0.1,0.4-0.3,0.6c-0.5,0.4-1.1,0.7-1.8,1   C110.5,111.8,109.8,111.9,109.2,111.9z"></path>		<path class="st15" d="M118.1,111.9c-0.3,0-0.5-0.1-0.7-0.3c-0.2-0.2-0.3-0.4-0.3-0.7V101c0-0.3,0.1-0.5,0.3-0.7   c0.2-0.2,0.4-0.3,0.7-0.3c0.3,0,0.5,0.1,0.7,0.3c0.2,0.2,0.3,0.4,0.3,0.7v9.9c0,0.3-0.1,0.5-0.3,0.7S118.4,111.9,118.1,111.9z    M127.2,111.9c-0.3,0-0.5-0.1-0.7-0.3c-0.2-0.2-0.3-0.4-0.3-0.7v-5.5c0-0.9-0.2-1.6-0.5-2.1c-0.3-0.5-0.7-1-1.3-1.2   c-0.5-0.3-1.2-0.4-1.9-0.4c-0.7,0-1.2,0.1-1.8,0.4c-0.5,0.3-0.9,0.6-1.3,1c-0.3,0.4-0.5,0.9-0.5,1.5h-1.3c0-0.9,0.2-1.7,0.7-2.4   c0.4-0.7,1.1-1.3,1.8-1.7c0.8-0.4,1.6-0.6,2.6-0.6s1.9,0.2,2.7,0.6c0.8,0.4,1.4,1.1,1.9,1.9c0.5,0.8,0.7,1.8,0.7,3v5.5   c0,0.3-0.1,0.5-0.3,0.7C127.7,111.8,127.5,111.9,127.2,111.9z"></path>		<path class="st15" d="M131.3,102.1c-0.3,0-0.5-0.1-0.7-0.2c-0.2-0.2-0.3-0.4-0.3-0.6c0-0.3,0.1-0.5,0.3-0.6   c0.2-0.2,0.4-0.2,0.7-0.2h5.2c0.3,0,0.5,0.1,0.7,0.2c0.2,0.2,0.3,0.4,0.3,0.6s-0.1,0.4-0.3,0.6c-0.2,0.2-0.4,0.2-0.7,0.2H131.3z    M136.4,111.8c-0.7,0-1.4-0.2-2-0.6c-0.6-0.4-1.1-0.9-1.4-1.5s-0.5-1.4-0.5-2.2V97.1c0-0.3,0.1-0.5,0.3-0.7   c0.2-0.2,0.4-0.3,0.7-0.3c0.3,0,0.5,0.1,0.7,0.3c0.2,0.2,0.3,0.4,0.3,0.7v10.5c0,0.7,0.2,1.2,0.5,1.6c0.4,0.4,0.8,0.6,1.4,0.6h0.7   c0.2,0,0.5,0.1,0.6,0.3c0.2,0.2,0.3,0.4,0.3,0.7s-0.1,0.5-0.3,0.7c-0.2,0.2-0.5,0.3-0.8,0.3C136.9,111.8,136.4,111.8,136.4,111.8z   "></path>		<path class="st15" d="M141.9,97.9c-0.4,0-0.7-0.1-0.9-0.4c-0.3-0.3-0.4-0.6-0.4-1c0-0.4,0.1-0.7,0.4-0.9c0.3-0.3,0.6-0.4,0.9-0.4   s0.7,0.1,0.9,0.4c0.3,0.3,0.4,0.6,0.4,0.9c0,0.4-0.1,0.7-0.4,1C142.6,97.7,142.3,97.9,141.9,97.9z M141.9,111.8   c-0.3,0-0.6-0.1-0.7-0.3c-0.2-0.2-0.3-0.4-0.3-0.7v-9.9c0-0.3,0.1-0.5,0.3-0.7c0.2-0.2,0.4-0.3,0.7-0.3c0.3,0,0.5,0.1,0.7,0.3   c0.2,0.2,0.3,0.4,0.3,0.7v9.9c0,0.3-0.1,0.5-0.3,0.7C142.4,111.7,142.2,111.8,141.9,111.8z"></path>		<path class="st15" d="M152.4,111.9c-1.2,0-2.2-0.3-3.1-0.8c-0.9-0.5-1.6-1.2-2.1-2.1s-0.8-1.9-0.8-3.1c0-1.2,0.3-2.2,0.8-3.1   c0.5-0.9,1.2-1.6,2.1-2.1c0.9-0.5,1.9-0.8,3.1-0.8c1.2,0,2.2,0.3,3.1,0.8c0.9,0.5,1.6,1.2,2.1,2.1c0.5,0.9,0.8,2,0.8,3.1   c0,1.2-0.3,2.2-0.8,3.1c-0.5,0.9-1.2,1.6-2.1,2.1C154.6,111.7,153.6,111.9,152.4,111.9z M152.4,110.1c0.8,0,1.5-0.2,2.1-0.5   c0.6-0.4,1.1-0.9,1.4-1.5c0.3-0.6,0.5-1.4,0.5-2.2c0-0.8-0.2-1.6-0.5-2.2c-0.3-0.6-0.8-1.1-1.4-1.5c-0.6-0.4-1.3-0.5-2.1-0.5   c-0.8,0-1.5,0.2-2.1,0.5c-0.6,0.4-1.1,0.9-1.4,1.5s-0.5,1.4-0.5,2.2c0,0.8,0.2,1.6,0.5,2.2c0.3,0.6,0.8,1.1,1.4,1.5   C150.9,110,151.6,110.1,152.4,110.1z"></path>		<path class="st15" d="M162.7,111.9c-0.3,0-0.5-0.1-0.7-0.3s-0.3-0.4-0.3-0.7V101c0-0.3,0.1-0.5,0.3-0.7s0.4-0.3,0.7-0.3   s0.5,0.1,0.7,0.3c0.2,0.2,0.3,0.4,0.3,0.7v9.9c0,0.3-0.1,0.5-0.3,0.7C163.3,111.8,163,111.9,162.7,111.9z M171.8,111.9   c-0.3,0-0.5-0.1-0.7-0.3c-0.2-0.2-0.3-0.4-0.3-0.7v-5.5c0-0.9-0.2-1.6-0.5-2.1c-0.3-0.5-0.7-1-1.3-1.2c-0.5-0.3-1.2-0.4-1.9-0.4   s-1.2,0.1-1.8,0.4c-0.5,0.3-0.9,0.6-1.3,1c-0.3,0.4-0.5,0.9-0.5,1.5h-1.3c0-0.9,0.2-1.7,0.7-2.4c0.4-0.7,1.1-1.3,1.8-1.7   c0.8-0.4,1.6-0.6,2.6-0.6c1,0,1.9,0.2,2.7,0.6c0.8,0.4,1.4,1.1,1.9,1.9c0.5,0.8,0.7,1.8,0.7,3v5.5c0,0.3-0.1,0.5-0.3,0.7   C172.3,111.8,172.1,111.9,171.8,111.9z"></path>		<path class="st15" d="M181.6,111.9c-1.1,0-2.1-0.3-2.9-0.8c-0.9-0.5-1.5-1.2-2-2.2c-0.5-0.9-0.7-1.9-0.7-3.1   c0-1.2,0.3-2.2,0.8-3.1s1.2-1.6,2.2-2.2c0.9-0.5,1.9-0.8,3.1-0.8c1.1,0,2.2,0.3,3.1,0.8c0.9,0.5,1.6,1.3,2.1,2.2   c0.5,0.9,0.8,1.9,0.8,3.1l-0.8,0.2c0,1.1-0.2,2.1-0.7,3c-0.5,0.9-1.2,1.6-2,2.1C183.8,111.6,182.6,111.9,181.6,111.9z    M181.9,110.1c0.8,0,1.5-0.2,2.1-0.6c0.6-0.4,1.1-0.9,1.4-1.5c0.4-0.6,0.5-1.4,0.5-2.2s-0.2-1.5-0.5-2.2c-0.4-0.6-0.8-1.2-1.4-1.5   c-0.6-0.4-1.3-0.6-2.1-0.6c-0.8,0-1.4,0.2-2.1,0.6s-1.1,0.9-1.5,1.5c-0.4,0.6-0.5,1.4-0.5,2.2c0,0.8,0.2,1.5,0.5,2.2   c0.4,0.6,0.8,1.2,1.5,1.5C180.5,109.8,181.2,110.1,181.9,110.1z M186.8,111.9c-0.3,0-0.5-0.1-0.7-0.3s-0.3-0.4-0.3-0.7v-3.5   l0.4-2.1l1.6,0.6v5c0,0.3-0.1,0.5-0.3,0.7C187.4,111.8,187.1,111.9,186.8,111.9z"></path>		<path class="st15" d="M193.8,111.8c-0.6,0-1.2-0.2-1.6-0.5c-0.5-0.3-0.9-0.8-1.1-1.4c-0.3-0.6-0.4-1.3-0.4-2V95.8   c0-0.3,0.1-0.5,0.3-0.7c0.2-0.2,0.4-0.3,0.7-0.3c0.3,0,0.5,0.1,0.7,0.3c0.2,0.2,0.3,0.4,0.3,0.7v12.1c0,0.6,0.1,1,0.3,1.4   c0.2,0.4,0.5,0.5,0.8,0.5h0.5c0.3,0,0.5,0.1,0.7,0.3c0.2,0.2,0.2,0.4,0.2,0.7c0,0.3-0.1,0.5-0.4,0.7   C194.6,111.7,194.3,111.8,193.8,111.8L193.8,111.8z"></path>		<path class="st15" d="M209.9,111.9c-1.1,0-2.2-0.3-3.1-0.8c-0.9-0.5-1.6-1.2-2.1-2.2c-0.5-0.9-0.8-1.9-0.8-3.1v-10   c0-0.3,0.1-0.5,0.3-0.7c0.2-0.2,0.4-0.3,0.7-0.3c0.3,0,0.5,0.1,0.7,0.3c0.2,0.2,0.3,0.4,0.3,0.7v6.1c0.5-0.6,1.1-1.1,1.9-1.5   c0.7-0.4,1.6-0.6,2.5-0.6c1.1,0,2,0.3,2.9,0.8c0.9,0.5,1.5,1.2,2,2.2c0.5,0.9,0.8,1.9,0.8,3.1c0,1.2-0.3,2.2-0.8,3.1   c-0.5,0.9-1.2,1.6-2.2,2.2C212.1,111.7,211,111.9,209.9,111.9z M209.9,110.1c0.8,0,1.5-0.2,2.1-0.6c0.6-0.4,1.1-0.9,1.5-1.5   s0.5-1.4,0.5-2.2c0-0.8-0.2-1.5-0.5-2.2c-0.4-0.6-0.8-1.1-1.5-1.5c-0.6-0.4-1.3-0.6-2.1-0.6c-0.8,0-1.5,0.2-2.1,0.6   c-0.6,0.4-1.1,0.9-1.4,1.5s-0.5,1.4-0.5,2.2c0,0.8,0.2,1.5,0.5,2.2c0.3,0.6,0.8,1.2,1.4,1.5C208.4,109.8,209.1,110.1,209.9,110.1z   "></path>		<path class="st15" d="M224.3,111.9c-1,0-1.9-0.2-2.7-0.6s-1.4-1.1-1.9-1.9c-0.5-0.8-0.7-1.8-0.7-3v-5.5c0-0.3,0.1-0.5,0.3-0.7   c0.2-0.2,0.4-0.3,0.7-0.3c0.3,0,0.5,0.1,0.7,0.3c0.2,0.2,0.3,0.4,0.3,0.7v5.5c0,0.8,0.2,1.5,0.5,2.1c0.3,0.6,0.8,1,1.3,1.2   c0.5,0.3,1.2,0.4,1.8,0.4c0.7,0,1.3-0.1,1.8-0.4c0.5-0.3,0.9-0.6,1.2-1.1c0.3-0.4,0.5-0.9,0.5-1.5h1.3c0,0.9-0.3,1.7-0.7,2.4   c-0.4,0.7-1,1.3-1.8,1.7C226.1,111.7,225.3,111.9,224.3,111.9z M229,111.8c-0.3,0-0.5-0.1-0.7-0.3c-0.2-0.2-0.3-0.4-0.3-0.7v-9.9   c0-0.3,0.1-0.5,0.3-0.7c0.2-0.2,0.4-0.3,0.7-0.3c0.3,0,0.5,0.1,0.7,0.3c0.2,0.2,0.3,0.4,0.3,0.7v9.9c0,0.3-0.1,0.5-0.3,0.7   C229.5,111.7,229.3,111.8,229,111.8z"></path>		<path class="st15" d="M238.2,111.9c-1,0-1.9-0.1-2.7-0.4c-0.9-0.3-1.5-0.7-2-1.2c-0.2-0.2-0.3-0.5-0.2-0.7   c0.1-0.2,0.2-0.5,0.4-0.7c0.2-0.2,0.5-0.3,0.8-0.2c0.3,0.1,0.5,0.1,0.7,0.3c0.3,0.3,0.7,0.6,1.3,0.8c0.6,0.2,1.2,0.3,1.8,0.3   c0.9,0,1.6-0.2,2.1-0.5c0.5-0.3,0.7-0.7,0.7-1.2c0-0.5-0.2-0.9-0.7-1.2c-0.5-0.3-1.2-0.6-2.4-0.8c-1.5-0.3-2.5-0.7-3.2-1.3   c-0.7-0.6-1-1.3-1-2.1c0-0.7,0.2-1.4,0.6-1.8c0.4-0.5,1-0.8,1.6-1.1c0.7-0.2,1.4-0.4,2.1-0.4c1,0,1.8,0.2,2.5,0.5s1.3,0.7,1.7,1.3   c0.2,0.2,0.3,0.4,0.3,0.7c0,0.2-0.1,0.4-0.4,0.6c-0.2,0.1-0.5,0.2-0.8,0.1c-0.3,0-0.5-0.2-0.7-0.4c-0.4-0.4-0.8-0.6-1.2-0.8   c-0.4-0.2-1-0.2-1.5-0.2c-0.7,0-1.3,0.1-1.7,0.4c-0.5,0.3-0.7,0.6-0.7,1.1c0,0.3,0.1,0.5,0.2,0.8c0.2,0.2,0.4,0.4,0.9,0.6   c0.4,0.2,1,0.3,1.8,0.5c1.1,0.2,1.9,0.5,2.6,0.8s1.1,0.7,1.4,1.2c0.3,0.4,0.4,1,0.4,1.5c0,0.7-0.2,1.3-0.6,1.8   c-0.4,0.5-0.9,0.9-1.6,1.3C240,111.9,239.2,111.9,238.2,111.9z"></path>		<path class="st15" d="M247,97.9c-0.4,0-0.7-0.1-0.9-0.4c-0.3-0.3-0.4-0.6-0.4-1c0-0.4,0.1-0.7,0.4-0.9c0.3-0.3,0.6-0.4,0.9-0.4   c0.3,0,0.7,0.1,0.9,0.4c0.3,0.3,0.4,0.6,0.4,0.9c0,0.4-0.1,0.7-0.4,1C247.7,97.7,247.4,97.9,247,97.9z M247,111.8   c-0.3,0-0.6-0.1-0.7-0.3c-0.2-0.2-0.3-0.4-0.3-0.7v-9.9c0-0.3,0.1-0.5,0.3-0.7c0.2-0.2,0.4-0.3,0.7-0.3c0.3,0,0.5,0.1,0.7,0.3   c0.2,0.2,0.3,0.4,0.3,0.7v9.9c0,0.3-0.1,0.5-0.3,0.7C247.5,111.7,247.3,111.8,247,111.8z"></path>		<path class="st15" d="M253.2,111.9c-0.3,0-0.5-0.1-0.7-0.3c-0.2-0.2-0.3-0.4-0.3-0.7V101c0-0.3,0.1-0.5,0.3-0.7   c0.2-0.2,0.4-0.3,0.7-0.3c0.3,0,0.5,0.1,0.7,0.3c0.2,0.2,0.3,0.4,0.3,0.7v9.9c0,0.3-0.1,0.5-0.3,0.7   C253.7,111.8,253.5,111.9,253.2,111.9z M262.3,111.9c-0.3,0-0.5-0.1-0.7-0.3s-0.3-0.4-0.3-0.7v-5.5c0-0.9-0.2-1.6-0.5-2.1   c-0.3-0.5-0.7-1-1.3-1.2c-0.5-0.3-1.2-0.4-1.9-0.4s-1.2,0.1-1.8,0.4c-0.5,0.3-0.9,0.6-1.3,1c-0.3,0.4-0.5,0.9-0.5,1.5h-1.3   c0-0.9,0.2-1.7,0.7-2.4c0.4-0.7,1.1-1.3,1.8-1.7c0.8-0.4,1.6-0.6,2.6-0.6s1.9,0.2,2.7,0.6c0.8,0.4,1.4,1.1,1.9,1.9   c0.5,0.8,0.7,1.8,0.7,3v5.5c0,0.3-0.1,0.5-0.3,0.7C262.8,111.8,262.6,111.9,262.3,111.9z"></path>		<path class="st15" d="M272.4,111.9c-1.2,0-2.3-0.3-3.2-0.8c-0.9-0.5-1.6-1.2-2.2-2.1c-0.5-0.9-0.8-1.9-0.8-3.1   c0-1.2,0.2-2.2,0.7-3.1c0.5-0.9,1.2-1.6,2-2.1c0.9-0.5,1.9-0.8,3-0.8s2.1,0.2,2.9,0.8c0.8,0.5,1.4,1.2,1.9,2.1   c0.4,0.9,0.7,1.9,0.7,3c0,0.2-0.1,0.5-0.2,0.6s-0.4,0.2-0.7,0.2h-8.9V105h9l-0.9,0.6c0-0.8-0.2-1.5-0.5-2.1   c-0.3-0.6-0.7-1.1-1.2-1.4c-0.5-0.3-1.2-0.5-1.9-0.5c-0.8,0-1.5,0.2-2.1,0.6c-0.6,0.4-1.1,0.9-1.4,1.5c-0.3,0.7-0.5,1.4-0.5,2.2   c0,0.8,0.2,1.6,0.6,2.2c0.4,0.6,0.9,1.2,1.5,1.5c0.6,0.4,1.4,0.6,2.3,0.6c0.5,0,0.9-0.1,1.4-0.3c0.5-0.2,0.9-0.4,1.2-0.6   c0.2-0.2,0.4-0.2,0.7-0.2c0.2,0,0.4,0.1,0.6,0.2c0.2,0.2,0.3,0.4,0.3,0.7c0,0.2-0.1,0.4-0.3,0.6c-0.5,0.4-1.1,0.7-1.8,1   C273.8,111.8,273.1,111.9,272.4,111.9z"></path>		<path class="st15" d="M284.6,111.9c-1,0-1.9-0.1-2.7-0.4c-0.9-0.3-1.5-0.7-2-1.2c-0.2-0.2-0.3-0.5-0.2-0.7   c0.1-0.2,0.2-0.5,0.4-0.7c0.2-0.2,0.5-0.3,0.8-0.2c0.3,0,0.5,0.1,0.7,0.3c0.3,0.3,0.7,0.6,1.3,0.8c0.6,0.2,1.2,0.3,1.8,0.3   c0.9,0,1.6-0.2,2.1-0.5s0.7-0.7,0.7-1.2c0-0.5-0.2-0.9-0.7-1.2c-0.5-0.3-1.2-0.6-2.4-0.8c-1.5-0.3-2.5-0.7-3.2-1.3   c-0.7-0.6-1-1.3-1-2.1c0-0.7,0.2-1.4,0.6-1.8c0.4-0.5,1-0.8,1.6-1.1c0.7-0.2,1.4-0.4,2.1-0.4c1,0,1.8,0.2,2.5,0.5   c0.7,0.3,1.3,0.7,1.7,1.3c0.2,0.2,0.3,0.4,0.3,0.7c0,0.2-0.1,0.4-0.4,0.6c-0.2,0.1-0.5,0.2-0.8,0.1c-0.3,0-0.5-0.2-0.7-0.4   c-0.4-0.4-0.8-0.6-1.2-0.8c-0.4-0.2-1-0.2-1.5-0.2c-0.7,0-1.3,0.1-1.7,0.4c-0.5,0.3-0.7,0.6-0.7,1.1c0,0.3,0.1,0.5,0.2,0.8   c0.1,0.3,0.4,0.4,0.9,0.6c0.4,0.2,1,0.3,1.8,0.5c1.1,0.2,1.9,0.5,2.6,0.8c0.6,0.3,1.1,0.7,1.4,1.2c0.3,0.4,0.4,1,0.4,1.5   c0,0.7-0.2,1.3-0.6,1.8c-0.4,0.5-0.9,0.9-1.6,1.3C286.4,111.8,285.6,111.9,284.6,111.9z"></path>		<path class="st15" d="M296.4,111.9c-1,0-1.9-0.1-2.7-0.4c-0.9-0.3-1.5-0.7-2-1.2c-0.2-0.2-0.3-0.5-0.2-0.7   c0.1-0.2,0.2-0.5,0.4-0.7c0.2-0.2,0.5-0.3,0.8-0.2c0.3,0,0.5,0.1,0.7,0.3c0.3,0.3,0.7,0.6,1.3,0.8s1.2,0.3,1.8,0.3   c0.9,0,1.6-0.2,2.1-0.5c0.5-0.3,0.7-0.7,0.7-1.2c0-0.5-0.2-0.9-0.7-1.2c-0.5-0.3-1.2-0.6-2.4-0.8c-1.5-0.3-2.5-0.7-3.2-1.3   c-0.7-0.6-1-1.3-1-2.1c0-0.7,0.2-1.4,0.6-1.8c0.4-0.5,1-0.8,1.6-1.1c0.7-0.2,1.4-0.4,2.1-0.4c1,0,1.8,0.2,2.5,0.5   c0.7,0.3,1.3,0.7,1.7,1.3c0.2,0.2,0.3,0.4,0.3,0.7c0,0.2-0.1,0.4-0.4,0.6c-0.2,0.1-0.5,0.2-0.8,0.1c-0.3,0-0.5-0.2-0.7-0.4   c-0.4-0.4-0.8-0.6-1.2-0.8c-0.4-0.2-1-0.2-1.5-0.2c-0.7,0-1.3,0.1-1.7,0.4c-0.5,0.3-0.7,0.6-0.7,1.1c0,0.3,0.1,0.5,0.2,0.8   s0.4,0.4,0.9,0.6c0.4,0.2,1,0.3,1.8,0.5c1.1,0.2,1.9,0.5,2.6,0.8c0.6,0.3,1.1,0.7,1.4,1.2c0.3,0.4,0.4,1,0.4,1.5   c0,0.7-0.2,1.3-0.6,1.8c-0.4,0.5-0.9,0.9-1.6,1.3C298.2,111.8,297.4,111.9,296.4,111.9z"></path>	</g>	<g class="st16">		<path class="st15" d="M383.2,111.9c-1.2,0-2.3-0.3-3.2-0.8c-0.9-0.5-1.6-1.2-2.2-2.1c-0.5-0.9-0.8-1.9-0.8-3.1   c0-1.2,0.2-2.2,0.7-3.1c0.5-0.9,1.2-1.6,2-2.1c0.9-0.5,1.9-0.8,3-0.8c1.1,0,2.1,0.2,2.9,0.8c0.8,0.5,1.4,1.2,1.9,2.1   c0.4,0.9,0.7,1.9,0.7,3c0,0.2-0.1,0.5-0.2,0.6s-0.4,0.2-0.7,0.2h-8.9V105h9l-0.9,0.6c0-0.8-0.2-1.5-0.5-2.1   c-0.3-0.6-0.7-1.1-1.2-1.4c-0.5-0.3-1.2-0.5-1.9-0.5c-0.8,0-1.5,0.2-2.1,0.6c-0.6,0.4-1.1,0.9-1.4,1.5c-0.3,0.7-0.5,1.4-0.5,2.2   c0,0.8,0.2,1.6,0.6,2.2c0.4,0.6,0.9,1.2,1.5,1.5c0.6,0.4,1.4,0.6,2.3,0.6c0.5,0,0.9-0.1,1.4-0.3c0.5-0.2,0.9-0.4,1.2-0.6   c0.2-0.2,0.4-0.2,0.7-0.2c0.2,0,0.4,0.1,0.6,0.2c0.2,0.2,0.3,0.4,0.3,0.7c0,0.2-0.1,0.4-0.3,0.6c-0.5,0.4-1.1,0.7-1.8,1   C384.6,111.8,383.9,111.9,383.2,111.9z"></path>	</g>	<g class="st16">		<path class="st15" d="M395.7,111.8c-0.4,0-0.7-0.2-1-0.7l-4.7-9.9c-0.1-0.2-0.1-0.5,0-0.7c0.1-0.2,0.3-0.4,0.5-0.5   c0.2-0.1,0.4-0.1,0.7-0.1c0.2,0.1,0.4,0.2,0.5,0.4l4.4,9.6h-1l4.4-9.6c0.1-0.2,0.3-0.4,0.5-0.5c0.2-0.1,0.5-0.1,0.7,0   c0.2,0.1,0.4,0.3,0.5,0.5c0.1,0.2,0.1,0.4,0,0.7l-4.7,9.9C396.4,111.6,396.1,111.8,395.7,111.8z"></path>	</g>	<g class="st16">		<path class="st15" d="M408.6,111.9c-1.2,0-2.2-0.3-3.1-0.8c-0.9-0.5-1.6-1.2-2.1-2.1c-0.5-0.9-0.8-1.9-0.8-3.1   c0-1.2,0.3-2.2,0.8-3.1c0.5-0.9,1.2-1.6,2.1-2.1c0.9-0.5,1.9-0.8,3.1-0.8s2.2,0.3,3.1,0.8c0.9,0.5,1.6,1.2,2.1,2.1   c0.5,0.9,0.8,2,0.8,3.1c0,1.2-0.3,2.2-0.8,3.1s-1.2,1.6-2.1,2.1C410.8,111.7,409.7,111.9,408.6,111.9z M408.6,110.1   c0.8,0,1.5-0.2,2.1-0.5c0.6-0.4,1.1-0.9,1.4-1.5c0.3-0.6,0.5-1.4,0.5-2.2c0-0.8-0.2-1.6-0.5-2.2c-0.3-0.6-0.8-1.1-1.4-1.5   c-0.6-0.4-1.3-0.5-2.1-0.5c-0.8,0-1.5,0.2-2.1,0.5c-0.6,0.4-1.1,0.9-1.4,1.5c-0.3,0.6-0.5,1.4-0.5,2.2c0,0.8,0.2,1.6,0.5,2.2   c0.3,0.6,0.8,1.1,1.4,1.5C407.1,110,407.8,110.1,408.6,110.1z"></path>		<path class="st15" d="M420.6,111.8c-0.6,0-1.2-0.2-1.6-0.5c-0.5-0.3-0.9-0.8-1.1-1.4c-0.3-0.6-0.4-1.3-0.4-2V95.8   c0-0.3,0.1-0.5,0.3-0.7c0.2-0.2,0.4-0.3,0.7-0.3s0.5,0.1,0.7,0.3s0.3,0.4,0.3,0.7v12.1c0,0.6,0.1,1,0.3,1.4   c0.2,0.4,0.5,0.5,0.8,0.5h0.5c0.3,0,0.5,0.1,0.7,0.3s0.2,0.4,0.2,0.7c0,0.3-0.1,0.5-0.4,0.7C421.4,111.7,421.1,111.8,420.6,111.8   L420.6,111.8z"></path>		<path class="st15" d="M429.3,111.9c-1,0-1.9-0.2-2.7-0.6s-1.4-1.1-1.9-1.9s-0.7-1.8-0.7-3v-5.5c0-0.3,0.1-0.5,0.3-0.7   c0.2-0.2,0.4-0.3,0.7-0.3s0.5,0.1,0.7,0.3c0.2,0.2,0.3,0.4,0.3,0.7v5.5c0,0.8,0.2,1.5,0.5,2.1c0.3,0.6,0.8,1,1.3,1.2   c0.5,0.3,1.2,0.4,1.8,0.4c0.7,0,1.3-0.1,1.8-0.4s0.9-0.6,1.2-1.1c0.3-0.4,0.5-0.9,0.5-1.5h1.3c0,0.9-0.3,1.7-0.7,2.4   c-0.4,0.7-1,1.3-1.8,1.7C431.2,111.7,430.3,111.9,429.3,111.9z M434,111.8c-0.3,0-0.5-0.1-0.7-0.3c-0.2-0.2-0.3-0.4-0.3-0.7v-9.9   c0-0.3,0.1-0.5,0.3-0.7c0.2-0.2,0.4-0.3,0.7-0.3c0.3,0,0.5,0.1,0.7,0.3c0.2,0.2,0.3,0.4,0.3,0.7v9.9c0,0.3-0.1,0.5-0.3,0.7   C434.6,111.7,434.3,111.8,434,111.8z"></path>		<path class="st15" d="M438.4,102.1c-0.3,0-0.5-0.1-0.7-0.2c-0.2-0.2-0.3-0.4-0.3-0.6c0-0.3,0.1-0.5,0.3-0.6   c0.2-0.2,0.4-0.2,0.7-0.2h5.2c0.3,0,0.5,0.1,0.7,0.2c0.2,0.2,0.3,0.4,0.3,0.6s-0.1,0.4-0.3,0.6c-0.2,0.2-0.4,0.2-0.7,0.2H438.4z    M443.4,111.8c-0.7,0-1.4-0.2-2-0.6c-0.6-0.4-1.1-0.9-1.4-1.5c-0.3-0.6-0.5-1.4-0.5-2.2V97.1c0-0.3,0.1-0.5,0.3-0.7   c0.2-0.2,0.4-0.3,0.7-0.3s0.5,0.1,0.7,0.3c0.2,0.2,0.3,0.4,0.3,0.7v10.5c0,0.7,0.2,1.2,0.5,1.6c0.4,0.4,0.8,0.6,1.4,0.6h0.7   c0.2,0,0.5,0.1,0.6,0.3c0.2,0.2,0.2,0.4,0.2,0.7s-0.1,0.5-0.3,0.7c-0.2,0.2-0.5,0.3-0.8,0.3C443.8,111.8,443.4,111.8,443.4,111.8z   "></path>		<path class="st15" d="M449,97.9c-0.4,0-0.7-0.1-0.9-0.4c-0.3-0.3-0.4-0.6-0.4-1c0-0.4,0.1-0.7,0.4-0.9c0.3-0.3,0.6-0.4,0.9-0.4   c0.3,0,0.7,0.1,0.9,0.4c0.3,0.3,0.4,0.6,0.4,0.9c0,0.4-0.1,0.7-0.4,1C449.7,97.7,449.3,97.9,449,97.9z M449,111.8   c-0.3,0-0.6-0.1-0.7-0.3c-0.2-0.2-0.3-0.4-0.3-0.7v-9.9c0-0.3,0.1-0.5,0.3-0.7c0.2-0.2,0.4-0.3,0.7-0.3s0.5,0.1,0.7,0.3   c0.2,0.2,0.3,0.4,0.3,0.7v9.9c0,0.3-0.1,0.5-0.3,0.7C449.5,111.7,449.3,111.8,449,111.8z"></path>		<path class="st15" d="M459.6,111.9c-1.2,0-2.2-0.3-3.1-0.8c-0.9-0.5-1.6-1.2-2.1-2.1c-0.5-0.9-0.8-1.9-0.8-3.1   c0-1.2,0.3-2.2,0.8-3.1c0.5-0.9,1.2-1.6,2.1-2.1c0.9-0.5,1.9-0.8,3.1-0.8s2.2,0.3,3.1,0.8c0.9,0.5,1.6,1.2,2.1,2.1   c0.5,0.9,0.8,2,0.8,3.1c0,1.2-0.3,2.2-0.8,3.1c-0.5,0.9-1.2,1.6-2.1,2.1C461.8,111.7,460.7,111.9,459.6,111.9z M459.6,110.1   c0.8,0,1.5-0.2,2.1-0.5c0.6-0.4,1.1-0.9,1.4-1.5s0.5-1.4,0.5-2.2c0-0.8-0.2-1.6-0.5-2.2s-0.8-1.1-1.4-1.5   c-0.6-0.4-1.3-0.5-2.1-0.5c-0.8,0-1.5,0.2-2.1,0.5c-0.6,0.4-1.1,0.9-1.4,1.5c-0.3,0.6-0.5,1.4-0.5,2.2c0,0.8,0.2,1.6,0.5,2.2   c0.3,0.6,0.8,1.1,1.4,1.5C458.1,110,458.8,110.1,459.6,110.1z"></path>		<path class="st15" d="M469.9,111.9c-0.3,0-0.5-0.1-0.7-0.3c-0.2-0.2-0.3-0.4-0.3-0.7V101c0-0.3,0.1-0.5,0.3-0.7   c0.2-0.2,0.4-0.3,0.7-0.3c0.3,0,0.5,0.1,0.7,0.3c0.2,0.2,0.3,0.4,0.3,0.7v9.9c0,0.3-0.1,0.5-0.3,0.7S470.2,111.9,469.9,111.9z    M478.9,111.9c-0.3,0-0.5-0.1-0.7-0.3s-0.3-0.4-0.3-0.7v-5.5c0-0.9-0.2-1.6-0.5-2.1c-0.3-0.5-0.7-1-1.3-1.2   c-0.5-0.3-1.2-0.4-1.9-0.4s-1.2,0.1-1.8,0.4c-0.5,0.3-0.9,0.6-1.3,1c-0.3,0.4-0.5,0.9-0.5,1.5h-1.3c0-0.9,0.2-1.7,0.7-2.4   c0.4-0.7,1.1-1.3,1.8-1.7c0.8-0.4,1.6-0.6,2.6-0.6c1,0,1.9,0.2,2.7,0.6c0.8,0.4,1.4,1.1,1.9,1.9c0.5,0.8,0.7,1.8,0.7,3v5.5   c0,0.3-0.1,0.5-0.3,0.7C479.4,111.8,479.2,111.9,478.9,111.9z"></path>	</g>	<g class="st16">		<path class="st17" d="M362.4,111.3c-0.2-0.3-0.1-0.7,0.1-1.1l3.7-5.9l2,0.6l-4,6.4c-0.1,0.2-0.2,0.3-0.4,0.4   c-0.1,0.1-0.3,0.1-0.5,0.1C362.9,111.8,362.6,111.7,362.4,111.3z M371.6,111.5c-0.2-0.2-0.3-0.4-0.3-0.7v-5.6h-3   c-1.1,0-2-0.2-2.9-0.7c-0.8-0.4-1.5-1-2-1.8c-0.5-0.8-0.7-1.6-0.7-2.6s0.2-2,0.7-2.8c0.5-0.8,1.1-1.4,2-1.9   c0.8-0.5,1.8-0.7,2.9-0.7h4c0.3,0,0.5,0.1,0.7,0.3c0.2,0.2,0.3,0.4,0.3,0.7v15c0,0.3-0.1,0.5-0.3,0.7s-0.4,0.3-0.7,0.3   C372.1,111.8,371.8,111.7,371.6,111.5z M371.4,96.7h-3c-0.7,0-1.3,0.1-1.8,0.4c-0.5,0.3-0.9,0.7-1.3,1.2c-0.3,0.5-0.5,1.1-0.5,1.8   c0,0.6,0.2,1.2,0.5,1.6c0.3,0.4,0.7,0.9,1.3,1.1c0.6,0.2,1.1,0.4,1.8,0.4h3V96.7z"></path>	</g></g></svg>